REM DIRINDEX 1\2,1\3\5,1\3\6,1\4\7,1\4\8
REM DIRNAME folder01,folder02,folder03,folder04,folder05,folder06,folder07,folder08
TITLE ""
FILE "" MP3
  TRACK 01 AUDIO
    TITLE "0:"
    INDEX 01 00:00:00
  TRACK 02 AUDIO
    TITLE "7:cjc139_2809"
    INDEX 01 00:00:17
  TRACK 03 AUDIO
    TITLE "0:"
    INDEX 01 00:03:74
  TRACK 04 AUDIO
    TITLE "8:cjc139_2810"
    INDEX 01 00:06:57
  TRACK 05 AUDIO
    TITLE "0:"
    INDEX 01 00:09:69
  TRACK 06 AUDIO
    TITLE "7:cjc139_2811"
    INDEX 01 00:12:56
  TRACK 07 AUDIO
    TITLE "0:"
    INDEX 01 00:15:30
  TRACK 08 AUDIO
    TITLE "8:cjc139_2812"
    INDEX 01 00:18:15
  TRACK 09 AUDIO
    TITLE "0:"
    INDEX 01 00:20:12
  TRACK 10 AUDIO
    TITLE "7:cjc139_2813"
    INDEX 01 00:22:74
  TRACK 11 AUDIO
    TITLE "0:"
    INDEX 01 00:25:29
  TRACK 12 AUDIO
    TITLE "8:cjc139_2814"
    INDEX 01 00:28:15
  TRACK 13 AUDIO
    TITLE "0:"
    INDEX 01 00:30:40
  TRACK 14 AUDIO
    TITLE "7:cjc139_2815"
    INDEX 01 00:33:26
  TRACK 15 AUDIO
    TITLE "0:"
    INDEX 01 00:35:41
  TRACK 16 AUDIO
    TITLE "8:cjc139_2816"
    INDEX 01 00:38:26
  TRACK 17 AUDIO
    TITLE "0:"
    INDEX 01 00:40:56
  TRACK 18 AUDIO
    TITLE "7:cjc139_2817"
    INDEX 01 00:43:44
  TRACK 19 AUDIO
    TITLE "0:"
    INDEX 01 00:46:31
  TRACK 20 AUDIO
    TITLE "8:cjc139_2818"
    INDEX 01 00:49:18
  TRACK 21 AUDIO
    TITLE "0:"
    INDEX 01 00:52:26
  TRACK 22 AUDIO
    TITLE "7:cjc139_2819"
    INDEX 01 00:55:14
  TRACK 23 AUDIO
    TITLE "0:"
    INDEX 01 00:57:15
  TRACK 24 AUDIO
    TITLE "8:cjc139_2820"
    INDEX 01 01:00:00
  TRACK 25 AUDIO
    TITLE "0:"
    INDEX 01 01:02:05
  TRACK 26 AUDIO
    TITLE "7:cjc139_2821"
    INDEX 01 01:04:64
  TRACK 27 AUDIO
    TITLE "0:"
    INDEX 01 01:06:57
  TRACK 28 AUDIO
    TITLE "8:cjc139_2822"
    INDEX 01 01:09:42
  TRACK 29 AUDIO
    TITLE "0:"
    INDEX 01 01:11:45
  TRACK 30 AUDIO
    TITLE "7:cjc139_2823"
    INDEX 01 01:14:31
  TRACK 31 AUDIO
    TITLE "0:"
    INDEX 01 01:16:11
  TRACK 32 AUDIO
    TITLE "8:cjc139_2824"
    INDEX 01 01:18:70
  TRACK 33 AUDIO
    TITLE "0:"
    INDEX 01 01:20:51
  TRACK 34 AUDIO
    TITLE "7:cjc139_2825"
    INDEX 01 01:23:38
  TRACK 35 AUDIO
    TITLE "0:"
    INDEX 01 01:25:13
  TRACK 36 AUDIO
    TITLE "8:cjc139_2826"
    INDEX 01 01:27:73
  TRACK 37 AUDIO
    TITLE "0:"
    INDEX 01 01:29:46
  TRACK 38 AUDIO
    TITLE "7:cjc139_2827"
    INDEX 01 01:32:31
  TRACK 39 AUDIO
    TITLE "0:"
    INDEX 01 01:34:38
  TRACK 40 AUDIO
    TITLE "8:cjc139_2828"
    INDEX 01 01:37:22
  TRACK 41 AUDIO
    TITLE "0:"
    INDEX 01 01:38:61
  TRACK 42 AUDIO
    TITLE "7:cjc139_2829"
    INDEX 01 01:41:50
  TRACK 43 AUDIO
    TITLE "0:"
    INDEX 01 01:43:52
  TRACK 44 AUDIO
    TITLE "8:cjc139_2830"
    INDEX 01 01:46:37
  TRACK 45 AUDIO
    TITLE "0:"
    INDEX 01 01:48:22
  TRACK 46 AUDIO
    TITLE "7:cjc139_2831"
    INDEX 01 01:51:07
  TRACK 47 AUDIO
    TITLE "0:"
    INDEX 01 01:53:00
  TRACK 48 AUDIO
    TITLE "8:cjc139_2832"
    INDEX 01 01:55:60
  TRACK 49 AUDIO
    TITLE "0:"
    INDEX 01 01:57:53
  TRACK 50 AUDIO
    TITLE "7:cjc139_2833"
    INDEX 01 02:00:37
  TRACK 51 AUDIO
    TITLE "0:"
    INDEX 01 02:03:22
  TRACK 52 AUDIO
    TITLE "8:cjc139_2834"
    INDEX 01 02:06:10
  TRACK 53 AUDIO
    TITLE "0:"
    INDEX 01 02:07:67
  TRACK 54 AUDIO
    TITLE "7:cjc139_2835"
    INDEX 01 02:10:53
  TRACK 55 AUDIO
    TITLE "0:"
    INDEX 01 02:14:24
  TRACK 56 AUDIO
    TITLE "8:cjc139_2836"
    INDEX 01 02:17:08
  TRACK 57 AUDIO
    TITLE "0:"
    INDEX 01 02:20:22
  TRACK 58 AUDIO
    TITLE "7:cjc139_2837"
    INDEX 01 02:23:07
  TRACK 59 AUDIO
    TITLE "0:"
    INDEX 01 02:25:63
  TRACK 60 AUDIO
    TITLE "8:cjc139_2838"
    INDEX 01 02:28:49
  TRACK 61 AUDIO
    TITLE "0:"
    INDEX 01 02:31:32
  TRACK 62 AUDIO
    TITLE "7:cjc139_2839"
    INDEX 01 02:34:17
  TRACK 63 AUDIO
    TITLE "0:"
    INDEX 01 02:36:41
  TRACK 64 AUDIO
    TITLE "8:cjc139_2840"
    INDEX 01 02:39:26
  TRACK 65 AUDIO
    TITLE "0:"
    INDEX 01 02:41:66
  TRACK 66 AUDIO
    TITLE "7:cjc139_2841"
    INDEX 01 02:44:50
  TRACK 67 AUDIO
    TITLE "0:"
    INDEX 01 02:46:67
  TRACK 68 AUDIO
    TITLE "8:cjc139_2842"
    INDEX 01 02:49:49
  TRACK 69 AUDIO
    TITLE "0:"
    INDEX 01 02:51:66
  TRACK 70 AUDIO
    TITLE "7:cjc139_2843"
    INDEX 01 02:54:53
  TRACK 71 AUDIO
    TITLE "0:"
    INDEX 01 02:56:40
  TRACK 72 AUDIO
    TITLE "8:cjc139_2844"
    INDEX 01 02:59:26
  TRACK 73 AUDIO
    TITLE "0:"
    INDEX 01 03:01:04
  TRACK 74 AUDIO
    TITLE "7:cjc139_2845"
    INDEX 01 03:03:63
  TRACK 75 AUDIO
    TITLE "0:"
    INDEX 01 03:06:42
  TRACK 76 AUDIO
    TITLE "8:cjc139_2846"
    INDEX 01 03:09:27
  TRACK 77 AUDIO
    TITLE "0:"
    INDEX 01 03:12:25
  TRACK 78 AUDIO
    TITLE "7:cjc139_2847"
    INDEX 01 03:15:10
  TRACK 79 AUDIO
    TITLE "0:"
    INDEX 01 03:17:05
  TRACK 80 AUDIO
    TITLE "8:cjc139_2848"
    INDEX 01 03:19:64
  TRACK 81 AUDIO
    TITLE "0:"
    INDEX 01 03:21:59
  TRACK 82 AUDIO
    TITLE "7:cjc139_2849"
    INDEX 01 03:24:46
  TRACK 83 AUDIO
    TITLE "0:"
    INDEX 01 03:26:72
  TRACK 84 AUDIO
    TITLE "8:cjc139_2850"
    INDEX 01 03:29:59
  TRACK 85 AUDIO
    TITLE "0:"
    INDEX 01 03:32:10
  TRACK 86 AUDIO
    TITLE "7:cjc139_2851"
    INDEX 01 03:34:68
  TRACK 87 AUDIO
    TITLE "0:"
    INDEX 01 03:37:68
  TRACK 88 AUDIO
    TITLE "8:cjc139_2852"
    INDEX 01 03:40:55
  TRACK 89 AUDIO
    TITLE "0:"
    INDEX 01 03:42:44
  TRACK 90 AUDIO
    TITLE "7:cjc139_2853"
    INDEX 01 03:45:32
  TRACK 91 AUDIO
    TITLE "0:"
    INDEX 01 03:47:55
  TRACK 92 AUDIO
    TITLE "8:cjc139_2854"
    INDEX 01 03:50:41
  TRACK 93 AUDIO
    TITLE "0:"
    INDEX 01 03:52:42
  TRACK 94 AUDIO
    TITLE "7:cjc139_2855"
    INDEX 01 03:55:31
  TRACK 95 AUDIO
    TITLE "0:"
    INDEX 01 03:58:21
  TRACK 96 AUDIO
    TITLE "8:cjc139_2856"
    INDEX 01 04:01:08
  TRACK 97 AUDIO
    TITLE "0:"
    INDEX 01 04:03:36
  TRACK 98 AUDIO
    TITLE "7:cjc139_2857"
    INDEX 01 04:06:21
  TRACK 99 AUDIO
    TITLE "0:"
    INDEX 01 04:09:07
  TRACK 100 AUDIO
    TITLE "8:cjc139_2858"
    INDEX 01 04:11:67
  TRACK 101 AUDIO
    TITLE "0:"
    INDEX 01 04:14:55
  TRACK 102 AUDIO
    TITLE "7:cjc139_2859"
    INDEX 01 04:17:40
  TRACK 103 AUDIO
    TITLE "0:"
    INDEX 01 04:20:01
  TRACK 104 AUDIO
    TITLE "8:cjc139_2860"
    INDEX 01 04:22:59
  TRACK 105 AUDIO
    TITLE "0:"
    INDEX 01 04:24:54
  TRACK 106 AUDIO
    TITLE "7:cjc139_2861"
    INDEX 01 04:27:40
  TRACK 107 AUDIO
    TITLE "0:"
    INDEX 01 04:29:61
  TRACK 108 AUDIO
    TITLE "8:cjc139_2862"
    INDEX 01 04:32:44
  TRACK 109 AUDIO
    TITLE "0:"
    INDEX 01 04:34:41
  TRACK 110 AUDIO
    TITLE "7:cjc139_2863"
    INDEX 01 04:37:25
  TRACK 111 AUDIO
    TITLE "0:"
    INDEX 01 04:39:26
  TRACK 112 AUDIO
    TITLE "8:cjc139_2864"
    INDEX 01 04:42:13
  TRACK 113 AUDIO
    TITLE "0:"
    INDEX 01 04:44:06
  TRACK 114 AUDIO
    TITLE "7:cjc139_2865"
    INDEX 01 04:46:69
  TRACK 115 AUDIO
    TITLE "0:"
    INDEX 01 04:49:22
  TRACK 116 AUDIO
    TITLE "8:cjc139_2866"
    INDEX 01 04:52:07
  TRACK 117 AUDIO
    TITLE "0:"
    INDEX 01 04:54:55
  TRACK 118 AUDIO
    TITLE "7:cjc139_2867"
    INDEX 01 04:57:44
  TRACK 119 AUDIO
    TITLE "0:"
    INDEX 01 05:00:20
  TRACK 120 AUDIO
    TITLE "8:cjc139_2868"
    INDEX 01 05:03:05
  TRACK 121 AUDIO
    TITLE "0:"
    INDEX 01 05:05:59
  TRACK 122 AUDIO
    TITLE "7:cjc139_2869"
    INDEX 01 05:08:41
  TRACK 123 AUDIO
    TITLE "0:"
    INDEX 01 05:11:18
  TRACK 124 AUDIO
    TITLE "8:cjc139_2870"
    INDEX 01 05:14:03
  TRACK 125 AUDIO
    TITLE "0:"
    INDEX 01 05:16:35
  TRACK 126 AUDIO
    TITLE "7:cjc139_2871"
    INDEX 01 05:19:22
  TRACK 127 AUDIO
    TITLE "0:"
    INDEX 01 05:21:62
  TRACK 128 AUDIO
    TITLE "8:cjc139_2872"
    INDEX 01 05:24:50
  TRACK 129 AUDIO
    TITLE "0:"
    INDEX 01 05:26:61
  TRACK 130 AUDIO
    TITLE "7:cjc139_2873"
    INDEX 01 05:29:45
  TRACK 131 AUDIO
    TITLE "0:"
    INDEX 01 05:33:35
  TRACK 132 AUDIO
    TITLE "8:cjc139_2874"
    INDEX 01 05:36:16
  TRACK 133 AUDIO
    TITLE "0:"
    INDEX 01 05:39:18
  TRACK 134 AUDIO
    TITLE "7:cjc139_2875"
    INDEX 01 05:42:05
  TRACK 135 AUDIO
    TITLE "0:"
    INDEX 01 05:44:71
  TRACK 136 AUDIO
    TITLE "8:cjc139_2876"
    INDEX 01 05:47:55
  TRACK 137 AUDIO
    TITLE "0:"
    INDEX 01 05:51:08
  TRACK 138 AUDIO
    TITLE "7:cjc139_2877"
    INDEX 01 05:53:69
  TRACK 139 AUDIO
    TITLE "0:"
    INDEX 01 05:57:73
  TRACK 140 AUDIO
    TITLE "8:cjc139_2878"
    INDEX 01 06:00:58
  TRACK 141 AUDIO
    TITLE "0:"
    INDEX 01 06:04:36
  TRACK 142 AUDIO
    TITLE "7:cjc139_2879"
    INDEX 01 06:07:21
  TRACK 143 AUDIO
    TITLE "0:"
    INDEX 01 06:08:71
  TRACK 144 AUDIO
    TITLE "8:cjc139_2880"
    INDEX 01 06:11:56
  TRACK 145 AUDIO
    TITLE "0:"
    INDEX 01 06:13:33
  TRACK 146 AUDIO
    TITLE "7:cjc139_2881"
    INDEX 01 06:16:20
  TRACK 147 AUDIO
    TITLE "0:"
    INDEX 01 06:18:67
  TRACK 148 AUDIO
    TITLE "8:cjc139_2882"
    INDEX 01 06:21:52
  TRACK 149 AUDIO
    TITLE "0:"
    INDEX 01 06:23:53
  TRACK 150 AUDIO
    TITLE "7:cjc139_2883"
    INDEX 01 06:26:38
  TRACK 151 AUDIO
    TITLE "0:"
    INDEX 01 06:27:61
  TRACK 152 AUDIO
    TITLE "8:cjc139_2884"
    INDEX 01 06:30:47
  TRACK 153 AUDIO
    TITLE "0:"
    INDEX 01 06:32:19
  TRACK 154 AUDIO
    TITLE "7:cjc139_2885"
    INDEX 01 06:35:03
  TRACK 155 AUDIO
    TITLE "0:"
    INDEX 01 06:37:12
  TRACK 156 AUDIO
    TITLE "8:cjc139_2886"
    INDEX 01 06:39:70
  TRACK 157 AUDIO
    TITLE "0:"
    INDEX 01 06:42:58
  TRACK 158 AUDIO
    TITLE "7:cjc139_2887"
    INDEX 01 06:45:43
  TRACK 159 AUDIO
    TITLE "0:"
    INDEX 01 06:47:59
  TRACK 160 AUDIO
    TITLE "8:cjc139_2888"
    INDEX 01 06:50:44
  TRACK 161 AUDIO
    TITLE "0:"
    INDEX 01 06:52:41
  TRACK 162 AUDIO
    TITLE "7:cjc139_2889"
    INDEX 01 06:55:27
  TRACK 163 AUDIO
    TITLE "0:"
    INDEX 01 06:58:73
  TRACK 164 AUDIO
    TITLE "8:cjc139_2890"
    INDEX 01 07:01:59
  TRACK 165 AUDIO
    TITLE "0:"
    INDEX 01 07:05:12
  TRACK 166 AUDIO
    TITLE "7:cjc139_2891"
    INDEX 01 07:07:74
  TRACK 167 AUDIO
    TITLE "0:"
    INDEX 01 07:10:25
  TRACK 168 AUDIO
    TITLE "8:cjc139_2892"
    INDEX 01 07:13:10
  TRACK 169 AUDIO
    TITLE "0:"
    INDEX 01 07:15:67
  TRACK 170 AUDIO
    TITLE "7:cjc139_2893"
    INDEX 01 07:18:54
  TRACK 171 AUDIO
    TITLE "0:"
    INDEX 01 07:21:60
  TRACK 172 AUDIO
    TITLE "8:cjc139_2894"
    INDEX 01 07:24:47
  TRACK 173 AUDIO
    TITLE "0:"
    INDEX 01 07:26:67
  TRACK 174 AUDIO
    TITLE "7:cjc139_2895"
    INDEX 01 07:29:52
  TRACK 175 AUDIO
    TITLE "0:"
    INDEX 01 07:32:56
  TRACK 176 AUDIO
    TITLE "8:cjc139_2896"
    INDEX 01 07:35:39
  TRACK 177 AUDIO
    TITLE "0:"
    INDEX 01 07:38:12
  TRACK 178 AUDIO
    TITLE "7:cjc139_2897"
    INDEX 01 07:41:02
  TRACK 179 AUDIO
    TITLE "0:"
    INDEX 01 07:43:50
  TRACK 180 AUDIO
    TITLE "8:cjc139_2898"
    INDEX 01 07:46:35
  TRACK 181 AUDIO
    TITLE "0:"
    INDEX 01 07:48:67
  TRACK 182 AUDIO
    TITLE "7:cjc139_2899"
    INDEX 01 07:51:55
  TRACK 183 AUDIO
    TITLE "0:"
    INDEX 01 07:54:03
  TRACK 184 AUDIO
    TITLE "8:cjc139_2900"
    INDEX 01 07:56:64
  TRACK 185 AUDIO
    TITLE "0:"
    INDEX 01 07:58:55
  TRACK 186 AUDIO
    TITLE "7:cjc139_2901"
    INDEX 01 08:01:42
  TRACK 187 AUDIO
    TITLE "0:"
    INDEX 01 08:04:11
  TRACK 188 AUDIO
    TITLE "8:cjc139_2902"
    INDEX 01 08:06:71
  TRACK 189 AUDIO
    TITLE "0:"
    INDEX 01 08:09:24
  TRACK 190 AUDIO
    TITLE "8:cjc139_2903"
    INDEX 01 08:10:49
  TRACK 191 AUDIO
    TITLE "0:"
    INDEX 01 08:13:18
  TRACK 192 AUDIO
    TITLE "7:cjc139_2904"
    INDEX 01 08:16:04
  TRACK 193 AUDIO
    TITLE "0:"
    INDEX 01 08:18:46
  TRACK 194 AUDIO
    TITLE "8:cjc139_2905"
    INDEX 01 08:21:33
  TRACK 195 AUDIO
    TITLE "0:"
    INDEX 01 08:23:53
  TRACK 196 AUDIO
    TITLE "7:cjc139_2906"
    INDEX 01 08:26:36
  TRACK 197 AUDIO
    TITLE "0:"
    INDEX 01 08:29:03
  TRACK 198 AUDIO
    TITLE "8:cjc139_2907"
    INDEX 01 08:31:63
  TRACK 199 AUDIO
    TITLE "0:"
    INDEX 01 08:34:10
  TRACK 200 AUDIO
    TITLE "7:cjc139_2908"
    INDEX 01 08:36:70
  TRACK 201 AUDIO
    TITLE "0:"
    INDEX 01 08:39:09
  TRACK 202 AUDIO
    TITLE "8:cjc139_2909"
    INDEX 01 08:41:67
  TRACK 203 AUDIO
    TITLE "0:"
    INDEX 01 08:44:01
  TRACK 204 AUDIO
    TITLE "7:cjc139_2910"
    INDEX 01 08:46:62
  TRACK 205 AUDIO
    TITLE "0:"
    INDEX 01 08:49:53
  TRACK 206 AUDIO
    TITLE "8:cjc139_2911"
    INDEX 01 08:52:37
  TRACK 207 AUDIO
    TITLE "0:"
    INDEX 01 08:54:62
  TRACK 208 AUDIO
    TITLE "7:cjc139_2912"
    INDEX 01 08:57:46
  TRACK 209 AUDIO
    TITLE "0:"
    INDEX 01 08:59:65
  TRACK 210 AUDIO
    TITLE "8:cjc139_2913"
    INDEX 01 09:02:46
  TRACK 211 AUDIO
    TITLE "0:"
    INDEX 01 09:04:33
  TRACK 212 AUDIO
    TITLE "7:cjc139_2914"
    INDEX 01 09:07:19
  TRACK 213 AUDIO
    TITLE "0:"
    INDEX 01 09:08:72
  TRACK 214 AUDIO
    TITLE "8:cjc139_2915"
    INDEX 01 09:11:54
  TRACK 215 AUDIO
    TITLE "0:"
    INDEX 01 09:13:28
  TRACK 216 AUDIO
    TITLE "7:cjc139_2916"
    INDEX 01 09:16:14
  TRACK 217 AUDIO
    TITLE "0:"
    INDEX 01 09:18:70
  TRACK 218 AUDIO
    TITLE "8:cjc139_2917"
    INDEX 01 09:21:55
  TRACK 219 AUDIO
    TITLE "0:"
    INDEX 01 09:24:26
  TRACK 220 AUDIO
    TITLE "7:cjc139_2918"
    INDEX 01 09:27:10
  TRACK 221 AUDIO
    TITLE "0:"
    INDEX 01 09:31:26
  TRACK 222 AUDIO
    TITLE "8:cjc139_2919"
    INDEX 01 09:34:14
  TRACK 223 AUDIO
    TITLE "0:"
    INDEX 01 09:37:46
  TRACK 224 AUDIO
    TITLE "7:cjc139_2920"
    INDEX 01 09:40:33
  TRACK 225 AUDIO
    TITLE "0:"
    INDEX 01 09:43:35
  TRACK 226 AUDIO
    TITLE "8:cjc139_2921"
    INDEX 01 09:46:23
  TRACK 227 AUDIO
    TITLE "0:"
    INDEX 01 09:49:55
  TRACK 228 AUDIO
    TITLE "7:cjc139_2922"
    INDEX 01 09:52:40
  TRACK 229 AUDIO
    TITLE "0:"
    INDEX 01 09:54:48
  TRACK 230 AUDIO
    TITLE "8:cjc139_2923"
    INDEX 01 09:57:33
  TRACK 231 AUDIO
    TITLE "0:"
    INDEX 01 09:59:55
  TRACK 232 AUDIO
    TITLE "7:cjc139_2924"
    INDEX 01 10:02:40
  TRACK 233 AUDIO
    TITLE "0:"
    INDEX 01 10:05:58
  TRACK 234 AUDIO
    TITLE "8:cjc139_2925"
    INDEX 01 10:08:43
  TRACK 235 AUDIO
    TITLE "0:"
    INDEX 01 10:11:57
  TRACK 236 AUDIO
    TITLE "7:cjc139_2926"
    INDEX 01 10:14:45
  TRACK 237 AUDIO
    TITLE "0:"
    INDEX 01 10:17:16
  TRACK 238 AUDIO
    TITLE "8:cjc139_2927"
    INDEX 01 10:20:01
  TRACK 239 AUDIO
    TITLE "0:"
    INDEX 01 10:23:03
  TRACK 240 AUDIO
    TITLE "7:cjc139_2928"
    INDEX 01 10:25:67
  TRACK 241 AUDIO
    TITLE "0:"
    INDEX 01 10:28:55
  TRACK 242 AUDIO
    TITLE "8:cjc139_2929"
    INDEX 01 10:31:40
  TRACK 243 AUDIO
    TITLE "0:"
    INDEX 01 10:34:71
  TRACK 244 AUDIO
    TITLE "7:cjc139_2930"
    INDEX 01 10:37:56
  TRACK 245 AUDIO
    TITLE "0:"
    INDEX 01 10:40:13
  TRACK 246 AUDIO
    TITLE "8:cjc139_2931"
    INDEX 01 10:42:73
  TRACK 247 AUDIO
    TITLE "0:"
    INDEX 01 10:45:48
  TRACK 248 AUDIO
    TITLE "7:cjc139_2932"
    INDEX 01 10:48:32
  TRACK 249 AUDIO
    TITLE "0:"
    INDEX 01 10:51:25
  TRACK 250 AUDIO
    TITLE "8:cjc139_2933"
    INDEX 01 10:54:09
  TRACK 251 AUDIO
    TITLE "0:"
    INDEX 01 10:56:53
